<svg xmlns="http://www.w3.org/2000/svg" 
    xmlns:xlink="http://www.w3.org/1999/xlink" viewBox="0 0 129 29">
    <defs>
        <path id="a" d="M0 .362h128.749v28.4H0z"/>
        <path id="c" d="M.828.284H6.23V8H.828z"/>
    </defs>
    <g fill="none" fill-rule="evenodd">
        <path fill="#F58221" d="M33.26 17.255a7.136 7.136 0 01-4.052 3.701 7.078 7.078 0 01-5.476-.248c-1.714-.81-3.008-2.225-3.633-4l-.012-.024a7.105 7.105 0 01.186-5.464 7.191 7.191 0 014.091-3.785c3.691-1.309 7.781.597 9.1 4.263.68 1.846.607 3.814-.205 5.557m3.04-6.593c-1.88-5.206-7.699-7.934-12.965-6.06-2.61.97-4.669 2.87-5.803 5.36a10.094 10.094 0 00-.922 4.206c0 1.193.22 2.398.651 3.557a9.977 9.977 0 005.185 5.714 10.056 10.056 0 007.792.353 10.106 10.106 0 005.758-5.265c1.15-2.48 1.26-5.269.304-7.865"/>
        <path fill="#F58221" d="M17.263 17.736c-.003-.001-.003-.006-.003-.011-.004-.002-.004-.004-.006-.01l.01.02zM94.697 21.8l2.723-.858.142-13.913h-2.725l.143 10.754-6.882-11.188-2.44.862-.142 14.057h2.723l-.283-10.761h.142zM47.36 13.479h-1.576v-4.3h1.576c1.324-.031 2.411.688 2.44 2.011-.029 1.944-1.62 2.302-2.44 2.289m5.31-2.289c-.068-2.306-1.49-4.19-5.022-4.161h-4.59l-.142 14.485h2.726v-5.88h.857c.447.056.763.203 1.008.574l4.014 5.592 2.727-1.002-4.449-5.881c1.694-.566 2.803-1.886 2.87-3.727m58.233 4.3h-3.587l1.865-5.736 1.722 5.736zm-8.462 5.452l2.436.859 1.725-4.16h5.02l1.434 4.16 2.58-.86-5.163-13.913h-2.439l-5.593 13.914zm-33.995-6.886c-.065 3.29-2.18 5.107-5.306 5.163h-1.721V9.323h2.294c2.802-.042 4.668 2.046 4.733 4.733zM58.838 7.03l-.145 14.485h5.019c3.81-.046 7.477-2.976 7.457-7.313.02-4.379-3.02-7.228-7.598-7.172h-4.733zm20.51 14.484l.142-14.485h-2.725l-.141 14.485z"/>
        <g transform="translate(0 -.362)">
            <mask id="b" fill="#fff">
                <use xlink:href="#a"/>
            </mask>
            <path fill="#FFF" d="M54.249 21.16l-2.727 1.002-4.014-5.593c-.245-.37-.561-.517-1.01-.573h-.855v5.88h-2.727l.142-14.486h4.59c3.532-.029 4.955 1.856 5.02 4.162-.065 1.84-1.174 3.161-2.868 3.727l4.449 5.881zm16.92-6.598c.02 4.338-3.646 7.268-7.457 7.314h-5.02l.146-14.486h4.734c4.578-.055 7.617 2.793 7.597 7.172zm8.32-7.172l-.141 14.486h-2.724l.14-14.486h2.726zm8.75 14.486h-2.722l.142-14.057 2.44-.862 6.88 11.188-.141-10.755h2.725l-.142 13.914-2.723.858-6.6-11.047h-.141l.282 10.761zm27.397-.572l-2.58.858-1.435-4.158h-5.02l-1.725 4.158-2.435-.858 5.593-13.915h2.439l5.163 13.915zm-85.4 2.85a10.054 10.054 0 01-7.79-.353 9.974 9.974 0 01-5.182-5.704l-.01-.02c.003.006.003.008.007.01a10.214 10.214 0 01-.651-3.557c0-1.439.308-2.863.922-4.206 1.134-2.49 3.193-4.39 5.802-5.36C28.6 3.09 34.42 5.818 36.3 11.024c.955 2.596.845 5.385-.304 7.865a10.105 10.105 0 01-5.76 5.265zM35.547 6.1L33.452.361 17.635 6.1H0v16.926h18.016l2.096 5.737 15.807-5.737h92.83V6.1H35.546z" mask="url(#b)"/>
        </g>
        <path fill="#FFF" d="M47.36 9.18h-1.576v4.3h1.576c.82.011 2.411-.346 2.44-2.29-.029-1.324-1.116-2.042-2.44-2.01m14.058 10.04h1.721c3.126-.057 5.241-1.874 5.306-5.164-.065-2.687-1.931-4.775-4.734-4.733h-2.293v9.896zm49.484-3.73l-1.722-5.736-1.865 5.736zM24.364 7.435c-1.839.682-3.29 2.023-4.09 3.785a7.105 7.105 0 00-.187 5.464l.012.024c.625 1.775 1.92 3.19 3.633 4a7.069 7.069 0 005.476.248 7.136 7.136 0 004.051-3.7c.812-1.744.885-3.712.204-5.557-1.318-3.666-5.408-5.573-9.099-4.264"/>
    </g>
</svg>